Germany after the war: a divided country. In the no man's land between East and West (the Wall has not yet been built), an abandoned train station serves as the meeting place for two people: Carl, a West-German border official, and Anna, an East-German factory worker. After meeting and falling in love, they start preparing for a future in the West for themselves and Anna's young son. Helmut Käutner was one of the first to deal with the impossibility of love across the borders between "the two Germanies" during the times of the Cold War. His film was a become a stinging indictment of the border which tore German apart.


   General
      Complete name : Himmel ohne Sterne.avi
      Format : AVI
      Format/Info : Audio Video Interleave
      File size : 1.36 GiB
      Duration : 1h 43mn
      Overall bit rate : 1 886 Kbps
      Writing application : FairUse Wizard - http://fairusewizard.com
      Writing library : The best and REALLY easy backup tool
   Video #0
      ID : 0
      Format : MPEG-4 Visual
      Format profile : AdvancedSimple@L5
      Format settings, BVOP : Yes
      Format settings, QPel : No
      Format settings, GMC : No warppoints
      Format settings, Matrix : Default (MPEG)
      Muxing mode : Packed bitstream
      Codec ID : XVID
      Codec ID/Hint : XviD
      Duration : 1h 43mn
      Bit rate : 1 684 Kbps
      Width : 688 pixels
      Height : 384 pixels
      Display aspect ratio : 16:9
      Frame rate : 25.000 fps
      Resolution : 24 bits
      Colorimetry : 4:2:0
      Scan type : Progressive
      Bits/(Pixel*Frame) : 0.255
      Stream size : 1.22 GiB (89%)
      Writing library : XviD 1.2.0.dev47 (UTC 2006-11-01)
   Audio #1
      ID : 1
      Format : AC-3
      Format/Info : Audio Coding 3
      Codec ID : 2000
      Duration : 1h 43mn
      Bit rate mode : Constant
      Bit rate : 192 Kbps
      Channel(s) : 2 channels
      Channel positions : L R
      Sampling rate : 48.0 KHz
      Stream size : 142 MiB (10%)
      Alignment : Split accross interleaves
      Interleave, duration : 40 ms (1.00 video frame)
      Interleave, preload duration : 500 ms

IMDB: tt0048169

German audio; English, Spanish and Portuguese srt, multilanguage (German, English, French, Italian, Spanish, Portuguese, Arabic, Japanese, Russian) sub/idx

Helmut Kautner - Himmel ohne Sterne [1955]